<mxfile host="app.diagrams.net" modified="2024-06-10T04:18:51.526Z" agent="Mozilla/5.0 (Windows NT 10.0; Win64; x64) AppleWebKit/537.36 (KHTML, like Gecko) Chrome/125.0.0.0 Safari/537.36" etag="Ndzbu5xSxpLsFPnyG8ME" version="24.5.2" type="github">
  <diagram name="Page-1" id="EqdyRZUB8mDeh12ShYHr">
    <mxGraphModel dx="1434" dy="772" grid="1" gridSize="10" guides="1" tooltips="1" connect="1" arrows="1" fold="1" page="1" pageScale="1" pageWidth="850" pageHeight="1100" math="0" shadow="0">
      <root>
        <mxCell id="0" />
        <mxCell id="1" parent="0" />
        <mxCell id="4vrZVHxkrmI99MQdSNeo-9" style="edgeStyle=orthogonalEdgeStyle;rounded=0;orthogonalLoop=1;jettySize=auto;html=1;entryX=0.5;entryY=0;entryDx=0;entryDy=0;" edge="1" parent="1" source="4vrZVHxkrmI99MQdSNeo-1" target="4vrZVHxkrmI99MQdSNeo-5">
          <mxGeometry relative="1" as="geometry" />
        </mxCell>
        <mxCell id="4vrZVHxkrmI99MQdSNeo-1" value="Customer Place Order" style="shape=image;html=1;verticalAlign=top;verticalLabelPosition=bottom;labelBackgroundColor=#ffffff;imageAspect=0;aspect=fixed;image=https://cdn0.iconfinder.com/data/icons/winter-lollipop/128/Cart.png" vertex="1" parent="1">
          <mxGeometry x="360" y="50" width="58" height="58" as="geometry" />
        </mxCell>
        <mxCell id="4vrZVHxkrmI99MQdSNeo-4" value="Payment Gateway Response Delay&amp;nbsp;" style="strokeWidth=2;html=1;shape=mxgraph.flowchart.delay;whiteSpace=wrap;" vertex="1" parent="1">
          <mxGeometry x="470" y="370" width="100" height="60" as="geometry" />
        </mxCell>
        <mxCell id="4vrZVHxkrmI99MQdSNeo-10" style="edgeStyle=orthogonalEdgeStyle;rounded=0;orthogonalLoop=1;jettySize=auto;html=1;entryX=0.4;entryY=-0.033;entryDx=0;entryDy=0;entryPerimeter=0;" edge="1" parent="1" source="4vrZVHxkrmI99MQdSNeo-5" target="4vrZVHxkrmI99MQdSNeo-15">
          <mxGeometry relative="1" as="geometry">
            <mxPoint x="240" y="400" as="targetPoint" />
          </mxGeometry>
        </mxCell>
        <mxCell id="4vrZVHxkrmI99MQdSNeo-5" value="Order Processing" style="verticalLabelPosition=bottom;verticalAlign=top;html=1;shape=process;whiteSpace=wrap;rounded=1;size=0.14;arcSize=6;" vertex="1" parent="1">
          <mxGeometry x="339" y="230" width="100" height="60" as="geometry" />
        </mxCell>
        <mxCell id="4vrZVHxkrmI99MQdSNeo-11" style="edgeStyle=orthogonalEdgeStyle;rounded=0;orthogonalLoop=1;jettySize=auto;html=1;entryX=0.43;entryY=-0.05;entryDx=0;entryDy=0;entryPerimeter=0;" edge="1" parent="1" source="4vrZVHxkrmI99MQdSNeo-5" target="4vrZVHxkrmI99MQdSNeo-4">
          <mxGeometry relative="1" as="geometry" />
        </mxCell>
        <mxCell id="4vrZVHxkrmI99MQdSNeo-13" style="edgeStyle=orthogonalEdgeStyle;rounded=0;orthogonalLoop=1;jettySize=auto;html=1;entryX=0.5;entryY=0;entryDx=0;entryDy=0;entryPerimeter=0;" edge="1" parent="1" source="4vrZVHxkrmI99MQdSNeo-4" target="4vrZVHxkrmI99MQdSNeo-18">
          <mxGeometry relative="1" as="geometry">
            <mxPoint x="510" y="570" as="targetPoint" />
          </mxGeometry>
        </mxCell>
        <mxCell id="4vrZVHxkrmI99MQdSNeo-15" value="Magento Order Confirmation (ST)" style="strokeWidth=2;html=1;shape=mxgraph.flowchart.document2;whiteSpace=wrap;size=0.25;" vertex="1" parent="1">
          <mxGeometry x="200" y="340" width="100" height="60" as="geometry" />
        </mxCell>
        <mxCell id="4vrZVHxkrmI99MQdSNeo-16" value="LS Order Confirmations (C)" style="strokeWidth=2;html=1;shape=mxgraph.flowchart.document2;whiteSpace=wrap;size=0.25;" vertex="1" parent="1">
          <mxGeometry x="200" y="410" width="100" height="60" as="geometry" />
        </mxCell>
        <mxCell id="4vrZVHxkrmI99MQdSNeo-18" value="Magento Order Confirmation (ST)" style="strokeWidth=2;html=1;shape=mxgraph.flowchart.document2;whiteSpace=wrap;size=0.25;" vertex="1" parent="1">
          <mxGeometry x="470" y="480" width="100" height="60" as="geometry" />
        </mxCell>
        <mxCell id="4vrZVHxkrmI99MQdSNeo-20" value="Order Fullfillment" style="verticalLabelPosition=bottom;verticalAlign=top;html=1;shape=process;whiteSpace=wrap;rounded=1;size=0.14;arcSize=6;" vertex="1" parent="1">
          <mxGeometry x="360" y="630" width="100" height="60" as="geometry" />
        </mxCell>
        <mxCell id="4vrZVHxkrmI99MQdSNeo-21" style="edgeStyle=orthogonalEdgeStyle;rounded=0;orthogonalLoop=1;jettySize=auto;html=1;" edge="1" parent="1" source="4vrZVHxkrmI99MQdSNeo-17">
          <mxGeometry relative="1" as="geometry">
            <mxPoint x="280" y="520" as="sourcePoint" />
            <mxPoint x="390" y="620" as="targetPoint" />
          </mxGeometry>
        </mxCell>
        <mxCell id="4vrZVHxkrmI99MQdSNeo-22" style="edgeStyle=orthogonalEdgeStyle;rounded=0;orthogonalLoop=1;jettySize=auto;html=1;" edge="1" parent="1" source="4vrZVHxkrmI99MQdSNeo-18">
          <mxGeometry relative="1" as="geometry">
            <mxPoint x="430" y="620" as="targetPoint" />
          </mxGeometry>
        </mxCell>
        <mxCell id="4vrZVHxkrmI99MQdSNeo-17" value="Magento Invoice (ST1)" style="strokeWidth=2;html=1;shape=mxgraph.flowchart.document2;whiteSpace=wrap;size=0.25;" vertex="1" parent="1">
          <mxGeometry x="200" y="490" width="100" height="60" as="geometry" />
        </mxCell>
      </root>
    </mxGraphModel>
  </diagram>
</mxfile>
